# xmcd
#
# Track frame offsets: 
#        150
#        21075
#        40460
#        57965
#        79727
#        99248
#        124701
#        144353
#        168831
#        186966
#        210066
#        225172
#        252457
#        280954
#        318560
#
# Disc length: 4699 seconds
#
# Revision: 3
# Processed by: cddbd v1.5.2PL0 Copyright (c) Steve Scherf et al.
# Submitted via: ExactAudioCopy v0.99pb5
#
DISCID=c112590f
DTITLE=Cruz, Celia - Éxitos Eternos
DYEAR=2003
DGENRE=Salsa
TTITLE0=La Vida Es Un Carnaval
TTITLE1=La Negra Tiene Tumbao
TTITLE2=Que Le Den Candela
TTITLE3=Sazón
TTITLE4=Usted Abusó [Live]
TTITLE5=La Guagua
TTITLE6=Oye Como Va
TTITLE7=La Voz De La Experiencia (Con La India)
TTITLE8=Mi Vida Es Cantar
TTITLE9=Cúcala [Live]
TTITLE10=Tu Voz
TTITLE11=Quimbara [Live]
TTITLE12=Guantanamera [Live]
TTITLE13=Por Si Acaso No Regreso
TTITLE14=Que Le Den Candela - Video
EXTD=YEAR: 2003
EXTT0=
EXTT1=
EXTT2=
EXTT3=
EXTT4=
EXTT5=
EXTT6=
EXTT7=
EXTT8=
EXTT9=
EXTT10=
EXTT11=
EXTT12=
EXTT13=
EXTT14=
PLAYORDER=
